<?xml version="1.0" standalone="no"?>
<!DOCTYPE svg PUBLIC "-//W3C//DTD SVG 20010904//EN"
 "http://www.w3.org/TR/2001/REC-SVG-20010904/DTD/svg10.dtd">
<svg version="1.0" xmlns="http://www.w3.org/2000/svg"
 width="500.000000pt" height="500.000000pt" viewBox="0 0 500.000000 500.000000"
 preserveAspectRatio="xMidYMid meet">
<metadata>
Created by potrace 1.11, written by Peter Selinger 2001-2013
</metadata>
<g transform="translate(0.000000,500.000000) scale(0.100000,-0.100000)"
fill="#000000" stroke="none">
<path d="M1650 4498 c-90 -11 -205 -48 -263 -85 -59 -37 -146 -129 -187 -198
-144 -242 -200 -748 -187 -1680 10 -646 38 -928 118 -1170 60 -180 165 -313
300 -379 134 -65 168 -69 708 -75 l484 -6 95 -258 95 -257 348 0 348 0 -16 38
c-8 20 -56 134 -105 252 -50 118 -92 221 -95 228 -4 8 6 12 30 12 64 0 189 29
251 58 34 16 87 53 119 82 171 156 243 372 289 865 18 195 18 1373 0 1575 -31
341 -77 547 -155 695 -46 87 -168 207 -248 244 -139 65 -120 64 -1029 67 -484
1 -856 -2 -900 -8z m1406 -680 c81 -44 89 -137 89 -1113 0 -947 -8 -1057 -76
-1107 -14 -11 -41 -20 -58 -21 l-33 -2 -118 335 -118 335 -316 3 -316 2 10
-22 c37 -85 250 -645 250 -656 0 -12 -28 -14 -177 -10 -286 7 -290 12 -313
323 -13 192 -14 1443 0 1635 17 244 34 291 113 309 25 5 247 9 537 8 446 -2
498 -4 526 -19z"/>
</g>
</svg>
